<svg width="679" height="216" viewBox="0 0 679 216" fill="none" xmlns="http://www.w3.org/2000/svg">
<g clip-path="url(#clip0_1386_2847)">
<path d="M678.729 0H594.602V24.2941H678.729V0Z" fill="#FF4713"/>
<path d="M85.434 101.629C90.1999 99.1941 93.8774 95.8882 96.4721 91.7059C99.0669 87.5235 100.361 82.7882 100.361 77.5C100.361 68.6118 96.6545 61.5471 89.2467 56.3059C81.833 51.0648 71.0361 48.4471 56.8501 48.4471H0V159.576H60.0274C74.8489 159.576 86.1753 156.929 94.0068 151.641C101.838 146.353 105.757 138.835 105.757 129.1C105.757 122.429 103.956 116.747 100.356 112.035C96.7546 107.329 91.7827 103.859 85.4281 101.635L85.434 101.629ZM31.1257 71.1471H52.7196C63.3047 71.1471 68.6002 74.6941 68.6002 81.7824C68.6002 88.8706 63.3047 92.5765 52.7196 92.5765H31.1257V71.1471ZM57.4855 136.876H31.1257V114.335H57.4855C68.4943 114.335 74.0016 118.094 74.0016 125.606C74.0016 133.118 68.4943 136.876 57.4855 136.876Z" fill="white"/>
<path d="M216.674 110.6C220.434 104.624 222.311 97.6118 222.311 89.5647C222.311 81.5176 220.298 73.9294 216.28 67.7353C212.255 61.5412 206.536 56.7824 199.128 53.4471C191.715 50.1118 182.983 48.4471 172.927 48.4471H122.114V159.576H153.558V130.047H170.709L190.873 159.576H224.541L200.564 124.653C207.554 121.265 212.92 116.582 216.68 110.6H216.674ZM185.631 101.553C182.347 104.359 177.476 105.759 171.021 105.759H153.552V73.2118H171.021C177.476 73.2118 182.347 74.6412 185.631 77.5C188.908 80.3588 190.555 84.3824 190.555 89.5647C190.555 94.7471 188.914 98.7471 185.631 101.553Z" fill="white"/>
<path d="M271.065 48.4471H239.621V159.576H271.065V48.4471Z" fill="white"/>
<path d="M569.189 135.288V114.965H618.578V91.4706H569.189V72.7353H625.245V48.4471H538.069V159.576H627.31V135.288H569.189Z" fill="white"/>
<path d="M413.137 104.165C413.137 136.547 436.419 159.565 475.806 159.565H519.182V132.271V104.006H490.951V132.271H488.25L474.853 132.259C456.678 132.259 444.875 121.465 444.875 103.847C444.875 86.2294 456.672 75.7471 474.853 75.7471H488.25H519.188V48.4471H475.812C436.425 48.4471 413.143 71.7824 413.143 104.165H413.137Z" fill="white"/>
<path d="M336.658 48.4589H293.329V75.7177H324.231L337.611 75.7294C355.769 75.7294 367.554 86.5118 367.554 104.112C367.554 121.712 355.769 132.176 337.611 132.176H293.329V159.453H336.658C376.004 159.453 399.257 136.141 399.257 103.794C399.257 71.4471 376.004 48.4589 336.658 48.4589Z" fill="white"/>
</g>
<path d="M51 215.04V188.48H54.96V215.04H51Z" fill="white"/>
<path d="M59.4338 215.04V188.48H64.0337L77.2738 208.36V188.48H81.1538V215.08H77.3137L63.3138 194.12V215.04H59.4338Z" fill="white"/>
<path d="M85.5666 215.04V188.48H90.1666L103.407 208.36V188.48H107.287V215.08H103.447L89.4466 194.12V215.04H85.5666Z" fill="white"/>
<path d="M123.344 215.52C115.664 215.52 110.544 209.96 110.544 201.76C110.544 193.56 115.704 188 123.544 188C131.224 188 136.344 193.56 136.344 201.76C136.344 209.96 131.184 215.52 123.344 215.52ZM123.384 211.96C128.824 211.96 132.224 208.16 132.224 201.84V201.64C132.224 195.4 128.904 191.56 123.504 191.56C118.104 191.56 114.664 195.32 114.664 201.64V201.8C114.664 208.08 117.984 211.96 123.384 211.96Z" fill="white"/>
<path d="M145.786 215.04L136.346 188.48H140.466L148.146 210.52L155.546 188.48H159.626L150.186 215.04H145.786Z" fill="white"/>
<path d="M155.999 215.04L166.039 188.48H170.639L180.359 215.04H176.159L173.399 207.28H162.959L160.079 215.04H155.999ZM164.159 203.76H172.199L168.239 192.8L164.159 203.76Z" fill="white"/>
<path d="M185.538 215.04V191.96H177.058V188.48H197.978V191.96H189.458V215.04H185.538Z" fill="white"/>
<path d="M200.371 215.04V188.48H218.851V192H204.291V199.48H214.051V203H204.291V211.52H219.491V215.04H200.371Z" fill="white"/>
<path d="M222.668 215.04V210.08H227.468V215.04H222.668Z" fill="#FE5620"/>
<path d="M245.148 215.04V191.96H236.667V188.48H257.587V191.96H249.068V215.04H245.148Z" fill="white"/>
<path d="M259.981 215.04V188.48H269.541C276.621 188.48 279.741 191.24 279.741 195.72C279.741 199.4 277.541 202.32 273.221 203.08C277.501 204.28 279.461 207.8 280.181 214.04C280.181 214.2 280.261 214.84 280.301 215.04H276.141C276.141 214.92 276.101 214.32 276.101 214.2C275.381 208.44 273.221 204.76 267.501 204.76H263.901V215.04H259.981ZM263.901 201.48H268.981C273.981 201.48 275.701 198.68 275.701 196.08C275.701 193.2 273.901 191.84 269.501 191.84H263.901V201.48Z" fill="white"/>
<path d="M281.585 215.04L291.625 188.48H296.225L305.945 215.04H301.745L298.985 207.28H288.545L285.665 215.04H281.585ZM289.745 203.76H297.785L293.825 192.8L289.745 203.76Z" fill="white"/>
<path d="M308.145 215.04V188.48H312.745L325.985 208.36V188.48H329.865V215.08H326.025L312.025 194.12V215.04H308.145Z" fill="white"/>
<path d="M344.158 215.48C337.398 215.48 333.798 212.36 332.758 206.56H337.038C337.838 210.52 339.958 212 344.038 212C347.638 212 349.758 210.28 349.758 207.48C349.758 204.8 346.558 204.08 342.718 203.36C338.278 202.48 333.678 201.04 333.678 195.92C333.678 191.36 337.518 188 342.958 188C348.878 188 352.758 190.96 353.558 196.84H349.318C348.798 193 346.558 191.48 342.918 191.48C339.598 191.48 337.558 193.16 337.558 195.76C337.558 198.6 341.078 199.2 344.838 199.92C349.198 200.72 353.678 202.12 353.678 207.28C353.678 212.12 350.118 215.48 344.158 215.48Z" fill="white"/>
<path d="M357.051 215.04V188.48H374.851V192H361.011V200.04H371.531V203.56H361.011V215.04H357.051Z" fill="white"/>
<path d="M388.266 215.52C380.586 215.52 375.466 209.96 375.466 201.76C375.466 193.56 380.626 188 388.466 188C396.146 188 401.266 193.56 401.266 201.76C401.266 209.96 396.106 215.52 388.266 215.52ZM388.306 211.96C393.746 211.96 397.146 208.16 397.146 201.84V201.64C397.146 195.4 393.826 191.56 388.426 191.56C383.026 191.56 379.586 195.32 379.586 201.64V201.8C379.586 208.08 382.906 211.96 388.306 211.96Z" fill="white"/>
<path d="M404.512 215.04V188.48H414.072C421.152 188.48 424.272 191.24 424.272 195.72C424.272 199.4 422.072 202.32 417.752 203.08C422.032 204.28 423.992 207.8 424.712 214.04C424.712 214.2 424.792 214.84 424.832 215.04H420.672C420.672 214.92 420.632 214.32 420.632 214.2C419.912 208.44 417.752 204.76 412.032 204.76H408.432V215.04H404.512ZM408.432 201.48H413.512C418.512 201.48 420.232 198.68 420.232 196.08C420.232 193.2 418.432 191.84 414.032 191.84H408.432V201.48Z" fill="white"/>
<path d="M428.457 215.04V188.48H435.177L442.097 209.64L449.417 188.48H455.897V215.04H452.057V191.96L443.737 215.04H440.297L432.337 192.2V215.04H428.457Z" fill="white"/>
<path d="M459.856 215.04V210.08H464.656V215.04H459.856Z" fill="#FE5620"/>
<path d="M476.504 215.04V188.48H494.984V192H480.424V199.48H490.184V203H480.424V211.52H495.624V215.04H476.504Z" fill="white"/>
<path d="M498.457 215.04V188.48H502.417V211.48H514.937V215.04H498.457Z" fill="white"/>
<path d="M517.051 215.04V188.48H535.531V192H520.971V199.48H530.731V203H520.971V211.52H536.171V215.04H517.051Z" fill="white"/>
<path d="M546.684 215.04L537.244 188.48H541.364L549.044 210.52L556.444 188.48H560.524L551.084 215.04H546.684Z" fill="white"/>
<path d="M556.897 215.04L566.937 188.48H571.537L581.257 215.04H577.057L574.297 207.28H563.857L560.977 215.04H556.897ZM565.057 203.76H573.097L569.137 192.8L565.057 203.76Z" fill="white"/>
<path d="M586.437 215.04V191.96H577.957V188.48H598.877V191.96H590.357V215.04H586.437Z" fill="white"/>
<path d="M601.27 215.04V188.48H619.75V192H605.19V199.48H614.95V203H605.19V211.52H620.39V215.04H601.27Z" fill="white"/>
<path d="M623.567 215.04V210.08H628.367V215.04H623.567Z" fill="#FE5620"/>
<defs>
<clipPath id="clip0_1386_2847">
<rect width="679" height="160" fill="white"/>
</clipPath>
</defs>
</svg>
