<svg width="1154" height="272" viewBox="0 0 1154 272" fill="none" xmlns="http://www.w3.org/2000/svg">
<path d="M1153.54 0H1010.56V41.3H1153.54V0Z" fill="#FF4713"/>
<path d="M145.2 172.77C153.3 168.63 159.55 163.01 163.96 155.9C168.37 148.79 170.57 140.74 170.57 131.75C170.57 116.64 164.27 104.63 151.68 95.7201C139.08 86.8101 120.73 82.3601 96.62 82.3601H0V271.28H102.02C127.21 271.28 146.46 266.78 159.77 257.79C173.08 248.8 179.74 236.02 179.74 219.47C179.74 208.13 176.68 198.47 170.56 190.46C164.44 182.46 155.99 176.56 145.19 172.78L145.2 172.77ZM52.9 120.95H89.6C107.59 120.95 116.59 126.98 116.59 139.03C116.59 151.08 107.59 157.38 89.6 157.38H52.9V120.95ZM97.7 232.69H52.9V194.37H97.7C116.41 194.37 125.77 200.76 125.77 213.53C125.77 226.3 116.41 232.69 97.7 232.69Z" fill="white"/>
<path d="M368.25 188.02C374.64 177.86 377.83 165.94 377.83 152.26C377.83 138.58 374.41 125.68 367.58 115.15C360.74 104.62 351.02 96.5301 338.43 90.8601C325.83 85.1901 310.99 82.3601 293.9 82.3601H207.54V271.28H260.98V221.08H290.13L324.4 271.28H381.62L340.87 211.91C352.75 206.15 361.87 198.19 368.26 188.02H368.25ZM315.49 172.64C309.91 177.41 301.63 179.79 290.66 179.79H260.97V124.46H290.66C301.63 124.46 309.91 126.89 315.49 131.75C321.06 136.61 323.86 143.45 323.86 152.26C323.86 161.07 321.07 167.87 315.49 172.64Z" fill="white"/>
<path d="M460.69 82.3601H407.25V271.28H460.69V82.3601Z" fill="white"/>
<path d="M967.37 229.99V195.44H1051.31V155.5H967.37V123.65H1062.64V82.3601H914.48V271.28H1066.15V229.99H967.37Z" fill="white"/>
<path d="M702.15 177.08C702.15 232.13 741.72 271.26 808.66 271.26H882.38V224.86V176.81H834.4V224.86H829.81L807.04 224.84C776.15 224.84 756.09 206.49 756.09 176.54C756.09 146.59 776.14 128.77 807.04 128.77H829.81H882.39V82.3601H808.67C741.73 82.3601 702.16 122.03 702.16 177.08H702.15Z" fill="white"/>
<path d="M572.17 82.3801H498.53V128.72H551.05L573.79 128.74C604.65 128.74 624.68 147.07 624.68 176.99C624.68 206.91 604.65 224.7 573.79 224.7H498.53V271.07H572.17C639.04 271.07 678.56 231.44 678.56 176.45C678.56 121.46 639.04 82.3801 572.17 82.3801Z" fill="white"/>
</svg>
